HIERARCHY
ROOT Pelvis
{
	OFFSET 0.000000 0.000000 0.000000
	CHANNELS 6 Xposition Yposition Zposition Xrotation Yrotation Zrotation
	JOINT LeftUpLeg_virtual
	{
		OFFSET 0.000000 0.000000 0.000000
		CHANNELS 3 Xrotation Yrotation Zrotation
		JOINT LeftUpLeg
		{
			OFFSET 18.735201 -5.666702 -4.541200
			CHANNELS 3 Xrotation Yrotation Zrotation
			JOINT LeftLeg
			{
				OFFSET -0.021200 -31.938179 0.493100
				CHANNELS 3 Xrotation Yrotation Zrotation
				JOINT LeftFoot
				{
					OFFSET 0.021200 -31.938179 -4.336299
					CHANNELS 3 Xrotation Yrotation Zrotation
					JOINT LeftToeBase
					{
						OFFSET 0.943001 -26.722000 15.023500
						CHANNELS 3 Xrotation Yrotation Zrotation
						End Site
						{
							OFFSET 0 0 0
						}
					}
				}
			}
		}
	}
	JOINT RightUpLeg_virtual
	{
		OFFSET 0.000000 0.000000 0.000000
		CHANNELS 3 Xrotation Yrotation Zrotation
		JOINT RightUpLeg
		{
			OFFSET -18.735201 -5.666702 -4.541200
			CHANNELS 3 Xrotation Yrotation Zrotation
			JOINT RightLeg
			{
				OFFSET 0.018946 -31.938133 0.493100
				CHANNELS 3 Xrotation Yrotation Zrotation
				JOINT RightFoot
				{
					OFFSET -0.018946 -31.938126 -4.336299
					CHANNELS 3 Xrotation Yrotation Zrotation
					JOINT RightToeBase
					{
						OFFSET -0.943001 -26.722004 15.023500
						CHANNELS 3 Xrotation Yrotation Zrotation
						End Site
						{
							OFFSET 0 0 0
						}
					}
				}
			}
		}
	}
	JOINT Hips_virtual
	{
		OFFSET 0.000000 0.000000 0.000000
		CHANNELS 3 Xrotation Yrotation Zrotation
		JOINT Hips
		{
			OFFSET -0.000000 -0.000000 -0.000000
			CHANNELS 3 Xrotation Yrotation Zrotation
			JOINT Spine
			{
				OFFSET 0.000000 10.199997 -0.299500
				CHANNELS 3 Xrotation Yrotation Zrotation
				JOINT Spine1
				{
					OFFSET 0.000000 11.900002 -1.516600
					CHANNELS 3 Xrotation Yrotation Zrotation
					JOINT Spine2
					{
						OFFSET 0.000000 13.600006 -2.842500
						CHANNELS 3 Xrotation Yrotation Zrotation
						JOINT Neck_virtual
						{
							OFFSET 0.000000 0.000000 0.000000
							CHANNELS 3 Xrotation Yrotation Zrotation
							JOINT Neck
							{
								OFFSET 0.000000 9.624100 -2.890100
								CHANNELS 3 Xrotation Yrotation Zrotation
								JOINT Head
								{
									OFFSET 0.000000 14.068802 -1.351900
									CHANNELS 3 Xrotation Yrotation Zrotation
									End Site
									{
										OFFSET 0 0 0
									}
								}
							}
						}
						JOINT LeftShoulder_virtual
						{
							OFFSET 0.000000 0.000000 0.000000
							CHANNELS 3 Xrotation Yrotation Zrotation
							JOINT LeftShoulder
							{
								OFFSET 15.263000 10.923401 -0.547700
								CHANNELS 3 Xrotation Yrotation Zrotation
								JOINT LeftArm
								{
									OFFSET 25.438599 -2.830597 -13.032500
									CHANNELS 3 Xrotation Yrotation Zrotation
									JOINT LeftForeArm
									{
										OFFSET 29.960503 0.000000 0.000000
										CHANNELS 3 Xrotation Yrotation Zrotation
										JOINT LeftHand
										{
											OFFSET 27.849251 0.000000 0.000000
											CHANNELS 3 Xrotation Yrotation Zrotation
											End Site
											{
												OFFSET 0 0 0
											}
										}
									}
								}
							}
						}
						JOINT RightShoulder_virtual
						{
							OFFSET 0.000000 0.000000 0.000000
							CHANNELS 3 Xrotation Yrotation Zrotation
							JOINT RightShoulder
							{
								OFFSET -15.263000 10.923401 -0.547700
								CHANNELS 3 Xrotation Yrotation Zrotation
								JOINT RightArm
								{
									OFFSET -25.438599 -2.830597 -13.032500
									CHANNELS 3 Xrotation Yrotation Zrotation
									JOINT RightForeArm
									{
										OFFSET -29.960503 0.000000 0.000000
										CHANNELS 3 Xrotation Yrotation Zrotation
										JOINT RightHand
										{
											OFFSET -27.849251 0.000000 0.000000
											CHANNELS 3 Xrotation Yrotation Zrotation
											End Site
											{
												OFFSET 0 0 0
											}
										}
									}
								}
							}
						}
					}
				}
			}
		}
	}
}
MOTION
Frames: 4
Frame Time: 0.03333333
-4.100548 90.191216 2.401855 0.000000 0.000000 0.000000 -19.953974 -52.475196 -10.925384 -26.272801 14.162209 19.528071 37.727069 10.397025 1.210736 3.795026 0.502921 -9.272173 0.000000 0.000000 0.000000 -20.712948 -51.952878 -10.748807 -17.904586 -8.223927 -23.516910 41.505970 -8.967599 1.094950 -10.878599 2.275167 23.221371 0.000000 0.000000 0.000000 -19.555211 -52.242485 -10.215584 0.275554 0.536542 -1.500580 3.296667 3.734136 2.289520 6.945416 -2.458555 -0.030516 0.000000 0.000000 0.000000 6.514109 2.592148 -1.073352 0.203159 1.045103 -1.141089 0.000000 0.000000 0.000000 6.236188 2.569756 -1.228667 9.382222 -24.923806 -1.886492 -31.112885 13.126421 -49.888631 -103.601539 -27.237109 -105.293595 0.000000 0.000000 0.000000 6.500958 2.716426 -1.836639 10.758723 14.184252 -4.719387 18.518890 23.517074 43.910750 -130.719070 62.695338 117.917328 0.000000 0.000000 0.000000 
-4.085649 90.096039 3.589478 0.000000 0.000000 0.000000 -18.816669 -51.310229 -10.022032 -27.108473 13.783828 19.257887 38.428796 10.120792 0.693701 3.114006 0.923408 -8.887617 0.000000 0.000000 0.000000 -19.149103 -50.714708 -9.597813 -18.194053 -8.006547 -23.834522 42.143958 -8.823947 1.124970 -10.090592 2.488634 23.478874 0.000000 0.000000 0.000000 -18.126979 -50.794792 -9.151784 0.052773 0.575295 -1.365014 3.560892 4.023016 2.282434 6.940965 -1.964782 -0.109450 0.000000 0.000000 0.000000 6.540039 3.022729 -1.202536 -0.062820 1.051862 -1.037351 0.000000 0.000000 0.000000 6.165660 3.085138 -1.197333 9.483114 -24.721385 -1.736063 -32.627974 13.704280 -49.362808 -103.179174 -27.134791 -104.765820 0.000000 0.000000 0.000000 6.578251 3.122564 -1.974521 10.810349 13.771484 -4.591307 17.908351 24.573144 41.798336 -128.831042 62.844680 116.340374 0.000000 0.000000 0.000000 
-3.899619 89.804817 5.191807 0.000000 0.000000 0.000000 -16.762587 -49.355316 -8.376657 -28.807774 13.136219 18.367627 40.431305 9.098035 -0.278302 1.786850 0.968976 -8.002472 0.000000 0.000000 0.000000 -16.725352 -48.754635 -7.870726 -18.418435 -7.093136 -23.833143 42.240799 -8.085430 0.680266 -8.664748 2.750033 22.773673 0.000000 0.000000 0.000000 -15.962265 -48.454981 -7.523546 -0.266170 0.541357 -1.165772 3.771696 4.381234 1.989865 6.804242 -0.871481 -0.188697 0.000000 0.000000 0.000000 6.479975 4.107709 -1.399019 -0.118747 1.171797 -0.920092 0.000000 0.000000 0.000000 6.045791 4.205167 -1.230234 9.729320 -24.699173 -1.215555 -33.885706 14.670625 -49.603269 -102.455556 -26.767848 -103.847870 0.000000 0.000000 0.000000 6.559350 4.162454 -2.079599 10.791205 13.297721 -4.010746 17.040496 25.730911 40.007362 -125.808369 63.424508 113.626590 0.000000 0.000000 0.000000 
-3.606145 89.439667 6.907574 0.000000 0.000000 0.000000 -14.330895 -46.922447 -6.446741 -30.936853 12.416946 16.908478 43.184575 7.377722 -1.528822 0.368838 0.462613 -6.853213 0.000000 0.000000 0.000000 -14.031796 -46.219422 -6.046964 -18.699695 -5.637350 -23.431022 42.110739 -6.830980 -0.110230 -7.279058 2.825330 21.100623 0.000000 0.000000 0.000000 -13.605030 -45.643098 -5.782183 -0.559786 0.555320 -0.926445 3.871099 4.705752 1.510437 6.589523 0.678220 -0.267809 0.000000 0.000000 0.000000 6.355659 5.668431 -1.640920 0.002602 1.382410 -0.800730 0.000000 0.000000 0.000000 5.936842 5.740954 -1.341692 10.091101 -25.033138 -0.431393 -34.269255 15.501430 -50.499991 -101.285169 -26.103931 -102.392575 0.000000 0.000000 0.000000 6.464538 5.697587 -2.172275 10.755195 12.849688 -3.080387 15.930395 26.951885 39.094360 -122.241822 64.187823 110.255168 0.000000 0.000000 0.000000 
